<svg width="38" height="38" viewBox="0 0 38 38" fill="none" xmlns="http://www.w3.org/2000/svg">
<path d="M36.4444 18.5029C36.4444 28.2587 28.4771 36.1775 18.6364 36.1775C8.79561 36.1775 0.828283 28.2587 0.828283 18.5029C0.828283 8.74708 8.79561 0.828283 18.6364 0.828283C28.4771 0.828283 36.4444 8.74708 36.4444 18.5029Z" stroke="white" stroke-width="1.65657"/>
<path d="M15 11H11V27H27V15L23 11H21M15 11V15H21V11M15 11H21M19 19C18.333 19 17 19.4 17 21C17 22.6 18.333 23 19 23C19.667 23 21 22.6 21 21C21 19.4 19.667 19 19 19Z" stroke="white" stroke-width="1.5" stroke-linecap="round" stroke-linejoin="round"/>
</svg>
