<svg width="38" height="38" viewBox="0 0 38 38" fill="none" xmlns="http://www.w3.org/2000/svg">
<path d="M36.7172 18.5029C36.7172 28.2587 28.7498 36.1775 18.9091 36.1775C9.06831 36.1775 1.10099 28.2587 1.10099 18.5029C1.10099 8.74708 9.06831 0.828283 18.9091 0.828283C28.7498 0.828283 36.7172 8.74708 36.7172 18.5029Z" stroke="white" stroke-width="1.65657"/>
<path d="M12.6 13.4H15V12.6C15 12.1756 15.1686 11.7687 15.4686 11.4686C15.7687 11.1686 16.1757 11 16.6 11H21.4C21.8243 11 22.2313 11.1686 22.5313 11.4686C22.8314 11.7687 22.9999 12.1756 22.9999 12.6V13.4H25.3999C25.6121 13.4 25.8156 13.4843 25.9656 13.6343C26.1156 13.7843 26.1999 13.9878 26.1999 14.2C26.1999 14.4121 26.1156 14.6156 25.9656 14.7656C25.8156 14.9157 25.6121 15 25.3999 15H24.5999V25.3999C24.5999 25.8242 24.4313 26.2312 24.1313 26.5312C23.8312 26.8313 23.4243 26.9998 22.9999 26.9998H15C14.5757 26.9998 14.1687 26.8313 13.8687 26.5312C13.5686 26.2312 13.4 25.8242 13.4 25.3999V15H12.6C12.3879 15 12.1844 14.9157 12.0344 14.7656C11.8843 14.6156 11.8 14.4121 11.8 14.2C11.8 13.9878 11.8843 13.7843 12.0344 13.6343C12.1844 13.4843 12.3879 13.4 12.6 13.4ZM15 15V25.3999H22.9999V15H15ZM16.6 13.4H21.4V12.6H16.6V13.4ZM16.6 16.5999H18.2V23.7999H16.6V16.5999ZM19.8 16.5999H21.4V23.7999H19.8V16.5999Z" fill="white"/>
</svg>
